<svg width="86" height="20" viewBox="0 0 86 20" fill="none" xmlns="http://www.w3.org/2000/svg">
<path fill-rule="evenodd" clip-rule="evenodd" d="M0.652649 3.125V3.12529V20.0001H17.5253H17.5276V10.3648H15.6526V18.1251H2.52756V5.00007H10.2882V3.125H0.652649Z" fill="#F50514"/>
<path fill-rule="evenodd" clip-rule="evenodd" d="M15.6509 0V3.12488H12.5259V5.0001H15.6509V8.12497H17.5259V5.0001H20.6509V3.12488H17.5259V0H15.6509Z" fill="#F50514"/>
<path fill-rule="evenodd" clip-rule="evenodd" d="M10.2894 15.6251V7.39587H8.62267C8.62267 7.9629 8.43162 8.38911 8.14229 8.64277C7.84058 8.89584 7.38263 9.01044 6.85187 9.01044H6.64349V10.3647H8.41429V15.6251H10.2894Z" fill="#F50514"/>
<path fill-rule="evenodd" clip-rule="evenodd" d="M29.6737 11.3861C29.6737 9.48749 28.8215 8.01382 27.0776 8.01382C25.3336 8.01382 24.4416 9.48749 24.4416 11.3861C24.4416 13.2713 25.3336 14.745 27.0776 14.745C28.8215 14.745 29.6737 13.2713 29.6737 11.3861ZM22.4728 11.386C22.4728 8.5448 24.2569 6.43408 27.0657 6.43408C29.875 6.43408 31.6457 8.5448 31.6457 11.386C31.6457 14.2271 29.875 16.3247 27.0657 16.3247C24.2569 16.3247 22.4728 14.2271 22.4728 11.386Z" fill="#F50514"/>
<path fill-rule="evenodd" clip-rule="evenodd" d="M33.2949 6.62H35.252L38.4205 11.9172C38.7268 12.4348 39.0861 13.2446 39.0861 13.2446H39.1128C39.1128 13.2446 39.0596 12.2623 39.0596 11.5986V6.62H40.9632V16.1124H39.0995L35.8509 10.8684C35.5448 10.3638 35.172 9.55408 35.172 9.55408H35.1454C35.1454 9.55408 35.1987 10.5497 35.1987 11.2135V16.1124H33.2949V6.62Z" fill="#F50514"/>
<path fill-rule="evenodd" clip-rule="evenodd" d="M43.1582 6.62H50.1609V8.23949H45.0887V10.3638H49.5353V11.9436H45.0887V14.506H50.201V16.1124H43.1582V6.62Z" fill="#F50514"/>
<path fill-rule="evenodd" clip-rule="evenodd" d="M54.0636 11.1074H56.0605C57.0723 11.1074 57.6047 10.5497 57.6047 9.68681C57.6047 8.79738 57.0457 8.29275 56.0871 8.29275H54.0636V11.1074ZM52.0645 6.62H56.2451C57.3497 6.62 58.175 6.93845 58.7344 7.5097C59.2669 8.05386 59.5864 8.79734 59.5864 9.6735C59.5864 11.4655 58.4016 12.6738 56.4047 12.6738H54.0616V16.1124H52.0645V6.62Z" fill="#F50514"/>
<path fill-rule="evenodd" clip-rule="evenodd" d="M61.0133 6.62H62.9435V14.506H67.4169V16.1124H61.0133V6.62Z" fill="#F50514"/>
<path fill-rule="evenodd" clip-rule="evenodd" d="M68.4406 13.0588V6.61975H70.371V13.0588C70.371 14.0409 70.8636 14.7317 72.1552 14.7317C73.38 14.7317 73.9523 14.0148 73.9523 13.0325V6.61975H75.8829V13.0588C75.8829 15.0901 74.6313 16.2718 72.1952 16.2718C69.7322 16.2718 68.4406 15.1164 68.4406 13.0588Z" fill="#F50514"/>
<path fill-rule="evenodd" clip-rule="evenodd" d="M77.2402 13.1784H79.1307C79.2639 14.3202 79.9161 14.7715 81.2741 14.7715C82.2593 14.7715 83.1247 14.4265 83.1247 13.55C83.1247 12.621 82.2195 12.435 80.7681 12.1031C79.064 11.718 77.5064 11.2666 77.5064 9.28857C77.5064 7.41683 79.0375 6.44751 81.1542 6.44751C83.298 6.44751 84.6822 7.49616 84.8289 9.40799H82.9782C82.8719 8.45194 82.1262 7.97412 81.141 7.97412C80.1026 7.97412 79.4237 8.41227 79.4237 9.0894C79.4237 9.85927 80.0893 10.0851 81.5005 10.3904C83.4578 10.8153 85.0551 11.2799 85.0551 13.3247C85.0551 15.2495 83.4974 16.3248 81.3542 16.3248C78.7713 16.3248 77.3068 15.1831 77.2402 13.1784Z" fill="#F50514"/>
</svg>
