<svg width="24" height="24" viewBox="0 0 24 24" fill="none" xmlns="http://www.w3.org/2000/svg">
<circle cx="12" cy="12" r="8.25" transform="rotate(90 12 12)" stroke="black" stroke-width="1.5"/>
<path d="M14.75 10.5354C14.75 12.0542 13.5188 13.2854 12 13.2854C10.4812 13.2854 9.25 12.0542 9.25 10.5354C9.25 9.01662 10.4812 7.7854 12 7.7854C13.5188 7.7854 14.75 9.01662 14.75 10.5354Z" stroke="black" stroke-width="1.5"/>
<path fill-rule="evenodd" clip-rule="evenodd" d="M18.0627 18.6515C17.1211 16.2223 14.7617 14.5 12 14.5C9.23819 14.5 6.8787 16.2224 5.93713 18.6517C5.53341 18.2835 5.16332 17.879 4.83203 17.4435C6.14128 14.8098 8.85928 13 12 13C15.1406 13 17.8585 14.8097 19.1678 17.4432C18.8365 17.8788 18.4665 18.2833 18.0627 18.6515Z" fill="black"/>
</svg>
